<mxfile host="app.diagrams.net" modified="2023-07-01T15:04:51.083Z" agent="Mozilla/5.0 (Windows NT 10.0; Win64; x64) AppleWebKit/537.36 (KHTML, like Gecko) Chrome/114.0.0.0 Safari/537.36" etag="6_76HKCz61j8_glJvbBs" version="21.2.3" type="github">
  <diagram id="C5RBs43oDa-KdzZeNtuy" name="Page-1">
    <mxGraphModel dx="1877" dy="1765" grid="1" gridSize="10" guides="1" tooltips="1" connect="1" arrows="1" fold="1" page="1" pageScale="1" pageWidth="827" pageHeight="1169" math="0" shadow="0">
      <root>
        <mxCell id="WIyWlLk6GJQsqaUBKTNV-0" />
        <mxCell id="WIyWlLk6GJQsqaUBKTNV-1" parent="WIyWlLk6GJQsqaUBKTNV-0" />
        <mxCell id="T8uVfFO5ekmT51n3sMAw-0" style="rounded=0;orthogonalLoop=1;jettySize=auto;html=1;" edge="1" parent="WIyWlLk6GJQsqaUBKTNV-1">
          <mxGeometry relative="1" as="geometry">
            <mxPoint x="390" y="174" as="sourcePoint" />
            <mxPoint x="390" y="240" as="targetPoint" />
          </mxGeometry>
        </mxCell>
        <mxCell id="T8uVfFO5ekmT51n3sMAw-36" value="1" style="edgeLabel;html=1;align=center;verticalAlign=middle;resizable=0;points=[];" vertex="1" connectable="0" parent="T8uVfFO5ekmT51n3sMAw-0">
          <mxGeometry x="-0.5758" relative="1" as="geometry">
            <mxPoint x="5" y="-5" as="offset" />
          </mxGeometry>
        </mxCell>
        <mxCell id="T8uVfFO5ekmT51n3sMAw-37" value="m" style="edgeLabel;html=1;align=center;verticalAlign=middle;resizable=0;points=[];" vertex="1" connectable="0" parent="T8uVfFO5ekmT51n3sMAw-0">
          <mxGeometry x="0.2727" y="-1" relative="1" as="geometry">
            <mxPoint x="7" y="9" as="offset" />
          </mxGeometry>
        </mxCell>
        <mxCell id="zkfFHV4jXpPFQw0GAbJ--0" value="University" style="swimlane;fontStyle=0;align=center;verticalAlign=top;childLayout=stackLayout;horizontal=1;startSize=26;horizontalStack=0;resizeParent=1;resizeLast=0;collapsible=1;marginBottom=0;rounded=0;shadow=0;strokeWidth=1;" parent="WIyWlLk6GJQsqaUBKTNV-1" vertex="1">
          <mxGeometry x="310" y="140" width="160" height="34" as="geometry">
            <mxRectangle x="230" y="140" width="160" height="26" as="alternateBounds" />
          </mxGeometry>
        </mxCell>
        <mxCell id="zkfFHV4jXpPFQw0GAbJ--4" value="" style="line;html=1;strokeWidth=1;align=left;verticalAlign=middle;spacingTop=-1;spacingLeft=3;spacingRight=3;rotatable=0;labelPosition=right;points=[];portConstraint=eastwest;" parent="zkfFHV4jXpPFQw0GAbJ--0" vertex="1">
          <mxGeometry y="26" width="160" height="8" as="geometry" />
        </mxCell>
        <mxCell id="T8uVfFO5ekmT51n3sMAw-3" style="rounded=0;orthogonalLoop=1;jettySize=auto;html=1;" edge="1" parent="WIyWlLk6GJQsqaUBKTNV-1" source="zkfFHV4jXpPFQw0GAbJ--13" target="T8uVfFO5ekmT51n3sMAw-1">
          <mxGeometry relative="1" as="geometry" />
        </mxCell>
        <mxCell id="T8uVfFO5ekmT51n3sMAw-38" value="m" style="edgeLabel;html=1;align=center;verticalAlign=middle;resizable=0;points=[];" vertex="1" connectable="0" parent="T8uVfFO5ekmT51n3sMAw-3">
          <mxGeometry x="-0.5" y="1" relative="1" as="geometry">
            <mxPoint x="4" y="-7" as="offset" />
          </mxGeometry>
        </mxCell>
        <mxCell id="T8uVfFO5ekmT51n3sMAw-39" value="m" style="edgeLabel;html=1;align=center;verticalAlign=middle;resizable=0;points=[];" vertex="1" connectable="0" parent="T8uVfFO5ekmT51n3sMAw-3">
          <mxGeometry x="0.3214" relative="1" as="geometry">
            <mxPoint x="7" y="6" as="offset" />
          </mxGeometry>
        </mxCell>
        <mxCell id="T8uVfFO5ekmT51n3sMAw-11" style="rounded=0;orthogonalLoop=1;jettySize=auto;html=1;entryX=0;entryY=0.5;entryDx=0;entryDy=0;" edge="1" parent="WIyWlLk6GJQsqaUBKTNV-1" source="zkfFHV4jXpPFQw0GAbJ--13" target="T8uVfFO5ekmT51n3sMAw-10">
          <mxGeometry relative="1" as="geometry" />
        </mxCell>
        <mxCell id="T8uVfFO5ekmT51n3sMAw-12" value="1" style="edgeLabel;html=1;align=center;verticalAlign=middle;resizable=0;points=[];" vertex="1" connectable="0" parent="T8uVfFO5ekmT51n3sMAw-11">
          <mxGeometry x="-0.2029" y="-1" relative="1" as="geometry">
            <mxPoint x="-46" y="8" as="offset" />
          </mxGeometry>
        </mxCell>
        <mxCell id="T8uVfFO5ekmT51n3sMAw-13" value="1" style="edgeLabel;html=1;align=center;verticalAlign=middle;resizable=0;points=[];" vertex="1" connectable="0" parent="T8uVfFO5ekmT51n3sMAw-11">
          <mxGeometry x="0.8114" y="-1" relative="1" as="geometry">
            <mxPoint y="8" as="offset" />
          </mxGeometry>
        </mxCell>
        <mxCell id="T8uVfFO5ekmT51n3sMAw-14" value="Will Have" style="edgeLabel;html=1;align=center;verticalAlign=middle;resizable=0;points=[];" vertex="1" connectable="0" parent="T8uVfFO5ekmT51n3sMAw-11">
          <mxGeometry x="0.2431" relative="1" as="geometry">
            <mxPoint x="-11" y="-8" as="offset" />
          </mxGeometry>
        </mxCell>
        <mxCell id="zkfFHV4jXpPFQw0GAbJ--13" value="School" style="swimlane;fontStyle=0;align=center;verticalAlign=top;childLayout=stackLayout;horizontal=1;startSize=26;horizontalStack=0;resizeParent=1;resizeLast=0;collapsible=1;marginBottom=0;rounded=0;shadow=0;strokeWidth=1;" parent="WIyWlLk6GJQsqaUBKTNV-1" vertex="1">
          <mxGeometry x="310" y="240" width="160" height="34" as="geometry">
            <mxRectangle x="340" y="380" width="170" height="26" as="alternateBounds" />
          </mxGeometry>
        </mxCell>
        <mxCell id="zkfFHV4jXpPFQw0GAbJ--15" value="" style="line;html=1;strokeWidth=1;align=left;verticalAlign=middle;spacingTop=-1;spacingLeft=3;spacingRight=3;rotatable=0;labelPosition=right;points=[];portConstraint=eastwest;" parent="zkfFHV4jXpPFQw0GAbJ--13" vertex="1">
          <mxGeometry y="26" width="160" height="8" as="geometry" />
        </mxCell>
        <mxCell id="T8uVfFO5ekmT51n3sMAw-1" value="Programs" style="swimlane;fontStyle=0;align=center;verticalAlign=top;childLayout=stackLayout;horizontal=1;startSize=26;horizontalStack=0;resizeParent=1;resizeLast=0;collapsible=1;marginBottom=0;rounded=0;shadow=0;strokeWidth=1;" vertex="1" parent="WIyWlLk6GJQsqaUBKTNV-1">
          <mxGeometry x="310" y="330" width="160" height="34" as="geometry">
            <mxRectangle x="340" y="380" width="170" height="26" as="alternateBounds" />
          </mxGeometry>
        </mxCell>
        <mxCell id="T8uVfFO5ekmT51n3sMAw-2" value="" style="line;html=1;strokeWidth=1;align=left;verticalAlign=middle;spacingTop=-1;spacingLeft=3;spacingRight=3;rotatable=0;labelPosition=right;points=[];portConstraint=eastwest;" vertex="1" parent="T8uVfFO5ekmT51n3sMAw-1">
          <mxGeometry y="26" width="160" height="8" as="geometry" />
        </mxCell>
        <mxCell id="T8uVfFO5ekmT51n3sMAw-5" style="rounded=0;orthogonalLoop=1;jettySize=auto;html=1;entryX=1;entryY=0.5;entryDx=0;entryDy=0;dashed=1;dashPattern=1 1;fillColor=#f5f5f5;strokeColor=#666666;gradientColor=none;strokeWidth=1;" edge="1" parent="WIyWlLk6GJQsqaUBKTNV-1" source="T8uVfFO5ekmT51n3sMAw-4" target="zkfFHV4jXpPFQw0GAbJ--0">
          <mxGeometry relative="1" as="geometry" />
        </mxCell>
        <mxCell id="T8uVfFO5ekmT51n3sMAw-6" value="Can Manage" style="edgeLabel;html=1;align=center;verticalAlign=middle;resizable=0;points=[];" vertex="1" connectable="0" parent="T8uVfFO5ekmT51n3sMAw-5">
          <mxGeometry x="-0.3389" y="11" relative="1" as="geometry">
            <mxPoint x="-5" y="-24" as="offset" />
          </mxGeometry>
        </mxCell>
        <mxCell id="T8uVfFO5ekmT51n3sMAw-7" style="rounded=0;orthogonalLoop=1;jettySize=auto;html=1;entryX=1;entryY=0.5;entryDx=0;entryDy=0;fillColor=#f5f5f5;strokeColor=#666666;dashed=1;dashPattern=1 1;" edge="1" parent="WIyWlLk6GJQsqaUBKTNV-1" source="T8uVfFO5ekmT51n3sMAw-4" target="zkfFHV4jXpPFQw0GAbJ--13">
          <mxGeometry relative="1" as="geometry" />
        </mxCell>
        <mxCell id="T8uVfFO5ekmT51n3sMAw-9" value="Can Manage" style="edgeLabel;html=1;align=center;verticalAlign=middle;resizable=0;points=[];rotation=-30;" vertex="1" connectable="0" parent="T8uVfFO5ekmT51n3sMAw-7">
          <mxGeometry x="-0.0748" y="12" relative="1" as="geometry">
            <mxPoint x="-14" y="-14" as="offset" />
          </mxGeometry>
        </mxCell>
        <mxCell id="T8uVfFO5ekmT51n3sMAw-15" style="rounded=0;orthogonalLoop=1;jettySize=auto;html=1;dashed=1;dashPattern=1 1;fillColor=#f5f5f5;strokeColor=#666666;" edge="1" parent="WIyWlLk6GJQsqaUBKTNV-1" source="T8uVfFO5ekmT51n3sMAw-4" target="T8uVfFO5ekmT51n3sMAw-10">
          <mxGeometry relative="1" as="geometry" />
        </mxCell>
        <mxCell id="T8uVfFO5ekmT51n3sMAw-16" value="Will Select" style="edgeLabel;html=1;align=center;verticalAlign=middle;resizable=0;points=[];" vertex="1" connectable="0" parent="T8uVfFO5ekmT51n3sMAw-15">
          <mxGeometry x="-0.4493" y="1" relative="1" as="geometry">
            <mxPoint x="27" y="9" as="offset" />
          </mxGeometry>
        </mxCell>
        <mxCell id="T8uVfFO5ekmT51n3sMAw-4" value="Super Admin" style="ellipse;whiteSpace=wrap;html=1;" vertex="1" parent="WIyWlLk6GJQsqaUBKTNV-1">
          <mxGeometry x="599" y="137" width="120" height="40" as="geometry" />
        </mxCell>
        <mxCell id="T8uVfFO5ekmT51n3sMAw-17" style="rounded=0;orthogonalLoop=1;jettySize=auto;html=1;entryX=1;entryY=0.5;entryDx=0;entryDy=0;dashed=1;dashPattern=1 1;fillColor=#f5f5f5;strokeColor=#666666;" edge="1" parent="WIyWlLk6GJQsqaUBKTNV-1" source="T8uVfFO5ekmT51n3sMAw-10" target="T8uVfFO5ekmT51n3sMAw-1">
          <mxGeometry relative="1" as="geometry" />
        </mxCell>
        <mxCell id="T8uVfFO5ekmT51n3sMAw-18" value="Can Manage" style="edgeLabel;html=1;align=center;verticalAlign=middle;resizable=0;points=[];rotation=-25;" vertex="1" connectable="0" parent="T8uVfFO5ekmT51n3sMAw-17">
          <mxGeometry x="0.1879" y="-1" relative="1" as="geometry">
            <mxPoint x="1" y="-9" as="offset" />
          </mxGeometry>
        </mxCell>
        <mxCell id="T8uVfFO5ekmT51n3sMAw-24" style="rounded=0;orthogonalLoop=1;jettySize=auto;html=1;dashed=1;dashPattern=1 1;fillColor=#f5f5f5;strokeColor=#666666;" edge="1" parent="WIyWlLk6GJQsqaUBKTNV-1" source="T8uVfFO5ekmT51n3sMAw-10" target="T8uVfFO5ekmT51n3sMAw-19">
          <mxGeometry relative="1" as="geometry" />
        </mxCell>
        <mxCell id="T8uVfFO5ekmT51n3sMAw-25" value="Can Select" style="edgeLabel;html=1;align=center;verticalAlign=middle;resizable=0;points=[];" vertex="1" connectable="0" parent="T8uVfFO5ekmT51n3sMAw-24">
          <mxGeometry x="0.3446" y="2" relative="1" as="geometry">
            <mxPoint x="28" y="-8" as="offset" />
          </mxGeometry>
        </mxCell>
        <mxCell id="T8uVfFO5ekmT51n3sMAw-27" style="rounded=0;orthogonalLoop=1;jettySize=auto;html=1;entryX=0;entryY=0.5;entryDx=0;entryDy=0;dashed=1;dashPattern=1 1;fillColor=#f5f5f5;strokeColor=#666666;" edge="1" parent="WIyWlLk6GJQsqaUBKTNV-1" source="T8uVfFO5ekmT51n3sMAw-10" target="T8uVfFO5ekmT51n3sMAw-26">
          <mxGeometry relative="1" as="geometry" />
        </mxCell>
        <mxCell id="T8uVfFO5ekmT51n3sMAw-28" value="Will Select" style="edgeLabel;html=1;align=center;verticalAlign=middle;resizable=0;points=[];" vertex="1" connectable="0" parent="T8uVfFO5ekmT51n3sMAw-27">
          <mxGeometry x="-0.4629" y="3" relative="1" as="geometry">
            <mxPoint x="14" y="-7" as="offset" />
          </mxGeometry>
        </mxCell>
        <mxCell id="T8uVfFO5ekmT51n3sMAw-10" value="Director" style="ellipse;whiteSpace=wrap;html=1;" vertex="1" parent="WIyWlLk6GJQsqaUBKTNV-1">
          <mxGeometry x="600" y="237" width="120" height="40" as="geometry" />
        </mxCell>
        <mxCell id="T8uVfFO5ekmT51n3sMAw-19" value="H.O.D" style="ellipse;whiteSpace=wrap;html=1;" vertex="1" parent="WIyWlLk6GJQsqaUBKTNV-1">
          <mxGeometry x="600" y="327" width="120" height="40" as="geometry" />
        </mxCell>
        <mxCell id="T8uVfFO5ekmT51n3sMAw-20" style="rounded=0;orthogonalLoop=1;jettySize=auto;html=1;entryX=0;entryY=0.5;entryDx=0;entryDy=0;exitX=1;exitY=0.5;exitDx=0;exitDy=0;" edge="1" parent="WIyWlLk6GJQsqaUBKTNV-1" source="T8uVfFO5ekmT51n3sMAw-1" target="T8uVfFO5ekmT51n3sMAw-19">
          <mxGeometry relative="1" as="geometry">
            <mxPoint x="480" y="380" as="sourcePoint" />
            <mxPoint x="610" y="380" as="targetPoint" />
          </mxGeometry>
        </mxCell>
        <mxCell id="T8uVfFO5ekmT51n3sMAw-21" value="1" style="edgeLabel;html=1;align=center;verticalAlign=middle;resizable=0;points=[];" vertex="1" connectable="0" parent="T8uVfFO5ekmT51n3sMAw-20">
          <mxGeometry x="-0.2029" y="-1" relative="1" as="geometry">
            <mxPoint x="-46" y="8" as="offset" />
          </mxGeometry>
        </mxCell>
        <mxCell id="T8uVfFO5ekmT51n3sMAw-22" value="1" style="edgeLabel;html=1;align=center;verticalAlign=middle;resizable=0;points=[];" vertex="1" connectable="0" parent="T8uVfFO5ekmT51n3sMAw-20">
          <mxGeometry x="0.8114" y="-1" relative="1" as="geometry">
            <mxPoint y="8" as="offset" />
          </mxGeometry>
        </mxCell>
        <mxCell id="T8uVfFO5ekmT51n3sMAw-23" value="Will Have" style="edgeLabel;html=1;align=center;verticalAlign=middle;resizable=0;points=[];" vertex="1" connectable="0" parent="T8uVfFO5ekmT51n3sMAw-20">
          <mxGeometry x="0.2431" relative="1" as="geometry">
            <mxPoint x="-11" y="-8" as="offset" />
          </mxGeometry>
        </mxCell>
        <mxCell id="T8uVfFO5ekmT51n3sMAw-26" value="Admins" style="ellipse;whiteSpace=wrap;html=1;" vertex="1" parent="WIyWlLk6GJQsqaUBKTNV-1">
          <mxGeometry x="806" y="237" width="120" height="40" as="geometry" />
        </mxCell>
        <mxCell id="T8uVfFO5ekmT51n3sMAw-29" value="Legends&lt;br&gt;" style="rounded=0;whiteSpace=wrap;html=1;verticalAlign=top;" vertex="1" parent="WIyWlLk6GJQsqaUBKTNV-1">
          <mxGeometry x="-75" y="-165" width="235" height="275" as="geometry" />
        </mxCell>
        <mxCell id="T8uVfFO5ekmT51n3sMAw-30" value="" style="ellipse;whiteSpace=wrap;html=1;" vertex="1" parent="WIyWlLk6GJQsqaUBKTNV-1">
          <mxGeometry x="-65" y="-125" width="80" height="40" as="geometry" />
        </mxCell>
        <mxCell id="T8uVfFO5ekmT51n3sMAw-32" value="=&amp;nbsp; &amp;nbsp; &amp;nbsp; Roles" style="text;html=1;strokeColor=none;fillColor=none;align=center;verticalAlign=middle;whiteSpace=wrap;rounded=0;" vertex="1" parent="WIyWlLk6GJQsqaUBKTNV-1">
          <mxGeometry x="45" y="-120" width="60" height="30" as="geometry" />
        </mxCell>
        <mxCell id="T8uVfFO5ekmT51n3sMAw-33" value="University" style="swimlane;fontStyle=0;align=center;verticalAlign=top;childLayout=stackLayout;horizontal=1;startSize=26;horizontalStack=0;resizeParent=1;resizeLast=0;collapsible=1;marginBottom=0;rounded=0;shadow=0;strokeWidth=1;" vertex="1" parent="WIyWlLk6GJQsqaUBKTNV-1">
          <mxGeometry x="-65" y="-75" width="90" height="34" as="geometry">
            <mxRectangle x="230" y="140" width="160" height="26" as="alternateBounds" />
          </mxGeometry>
        </mxCell>
        <mxCell id="T8uVfFO5ekmT51n3sMAw-34" value="" style="line;html=1;strokeWidth=1;align=left;verticalAlign=middle;spacingTop=-1;spacingLeft=3;spacingRight=3;rotatable=0;labelPosition=right;points=[];portConstraint=eastwest;" vertex="1" parent="T8uVfFO5ekmT51n3sMAw-33">
          <mxGeometry y="26" width="90" height="8" as="geometry" />
        </mxCell>
        <mxCell id="T8uVfFO5ekmT51n3sMAw-35" value="=&amp;nbsp; &amp;nbsp; &amp;nbsp; Modules" style="text;html=1;strokeColor=none;fillColor=none;align=center;verticalAlign=middle;whiteSpace=wrap;rounded=0;" vertex="1" parent="WIyWlLk6GJQsqaUBKTNV-1">
          <mxGeometry x="35" y="-73" width="90" height="30" as="geometry" />
        </mxCell>
        <mxCell id="T8uVfFO5ekmT51n3sMAw-43" value="" style="endArrow=classic;html=1;rounded=0;endSize=5;" edge="1" parent="WIyWlLk6GJQsqaUBKTNV-1">
          <mxGeometry width="50" height="50" relative="1" as="geometry">
            <mxPoint x="-50" y="22" as="sourcePoint" />
            <mxPoint y="-28" as="targetPoint" />
            <Array as="points">
              <mxPoint x="-20" y="-8" />
            </Array>
          </mxGeometry>
        </mxCell>
        <mxCell id="T8uVfFO5ekmT51n3sMAw-44" value="=&amp;nbsp; &amp;nbsp; &amp;nbsp;Relations" style="text;html=1;strokeColor=none;fillColor=none;align=center;verticalAlign=middle;whiteSpace=wrap;rounded=0;" vertex="1" parent="WIyWlLk6GJQsqaUBKTNV-1">
          <mxGeometry x="35" y="-25" width="90" height="30" as="geometry" />
        </mxCell>
        <mxCell id="T8uVfFO5ekmT51n3sMAw-45" value="" style="endArrow=classic;html=1;rounded=0;dashed=1;dashPattern=1 1;fillColor=#f5f5f5;strokeColor=#666666;" edge="1" parent="WIyWlLk6GJQsqaUBKTNV-1">
          <mxGeometry width="50" height="50" relative="1" as="geometry">
            <mxPoint x="-50" y="90" as="sourcePoint" />
            <mxPoint y="40" as="targetPoint" />
          </mxGeometry>
        </mxCell>
        <mxCell id="T8uVfFO5ekmT51n3sMAw-46" value="=&amp;nbsp; &amp;nbsp; &amp;nbsp; Actions" style="text;html=1;strokeColor=none;fillColor=none;align=center;verticalAlign=middle;whiteSpace=wrap;rounded=0;" vertex="1" parent="WIyWlLk6GJQsqaUBKTNV-1">
          <mxGeometry x="35" y="50" width="90" height="30" as="geometry" />
        </mxCell>
      </root>
    </mxGraphModel>
  </diagram>
</mxfile>
